<?xml version="1.0" encoding="UTF-8"?>
<!DOCTYPE svg PUBLIC "-//W3C//DTD SVG 1.1//EN" "http://www.w3.org/Graphics/SVG/1.1/DTD/svg11.dtd">
<!-- Creator: CorelDRAW -->
<svg xmlns="http://www.w3.org/2000/svg" xml:space="preserve" width="357.876mm" height="120.085mm" version="1.1" style="shape-rendering:geometricPrecision; text-rendering:geometricPrecision; image-rendering:optimizeQuality; fill-rule:evenodd; clip-rule:evenodd"
viewBox="0 0 35786.5 12008.12"
 xmlns:xlink="http://www.w3.org/1999/xlink"
 xmlns:xodm="http://www.corel.com/coreldraw/odm/2003">
 <defs>
  <style type="text/css">
   <![CDATA[
    .fil0 {fill:black;fill-rule:nonzero}
    .fil1 {fill:#B89B45;fill-rule:nonzero}
   ]]>
  </style>
 </defs>
 <g id="Layer_x0020_1">
  <metadata id="CorelCorpID_0Corel-Layer"/>
  <g id="_105554147844224">
   <g>
    <g>
     <path class="fil0" d="M14323.98 4841.19l578.33 0 0 2440.01 -568.42 0 -29.75 -356.37c-137.7,287.24 -519.66,425.77 -792.04,430.73 -722.64,4.95 -1257.17,-440.63 -1257.17,-1296.84 0,-841.33 559.33,-1281.96 1272.05,-1277 326.62,0 638.64,153.68 777.16,396.02l19.84 -336.54zm-1464.28 1217.51c0,465.43 321.66,743.58 722.64,743.58 950.4,0 950.4,-1479.98 0,-1479.98 -401.8,-1.65 -722.64,271.26 -722.64,736.4z"/>
     <polygon class="fil0" points="15813.86,3821.67 15813.86,7281.19 15214.88,7281.19 15214.88,3821.67 "/>
     <path class="fil0" d="M16996.7 4153.25l0 692.89 673.06 0 0 519.67 -679.12 0 0 1054.22c0,232.7 128.61,346.45 316.7,346.45 101.57,-2.92 201.47,-28.32 292.22,-74.12l168.28 514.71c-158.5,65.88 -328.33,101.37 -499.82,103.84 -529.58,19.83 -876.3,-282 -876.3,-890.9l-0.07 -1054.2 -454.13 0 0 -519.67 455.24 0 0 -628.72 603.94 -64.17z"/>
     <path class="fil0" d="M18437.01 6276.54c39.66,302.94 302.93,519.67 727.6,519.67 222.79,0 514.71,-82.62 653.23,-227.75l385.56 381.15c-257.22,267.4 -678.02,396.02 -1049.26,396.02 -841.33,0 -1341.17,-519.67 -1341.17,-1301.8 0,-743.57 504.8,-1277 1296.56,-1277 816.83,0 1326.58,505.08 1232.39,1509.72l-1904.91 0zm1326.58 -499.85c-39.66,-316.7 -287.24,-475.33 -633.41,-475.33 -326.62,0 -593.75,158.63 -682.98,475.33l1316.39 0z"/>
     <path class="fil0" d="M21169.21 4841.19l44.61 282c188.09,-302.93 440.63,-346.45 688.49,-346.45 252.53,0 495.72,99.14 628.73,232.7l-272.37 524.62c-123.65,-103.83 -237.66,-158.36 -435.67,-158.36 -316.71,0 -608.63,168.27 -608.63,618.81l0 1286.64 -604.49 0.03 0 -2440.01 559.33 0z"/>
     <path class="fil0" d="M24356.65 7281.19l0 -1276.74c0,-371.23 -202.69,-653.51 -588.8,-653.51 -371.24,0 -623.77,311.74 -623.77,682.98l0 1247.27 -598.71 0 0 -2444.97 539.5 0 39.38 330.48c247.86,-242.34 495.72,-366.28 801.96,-366.28 574.2,0 1034.39,430.72 1034.39,1197.96l0 1281.69 -603.94 1.11z"/>
     <path class="fil0" d="M27217.72 4841.19l578.33 0 0 2440.01 -568.96 0 -29.75 -356.37c-137.7,287.24 -519.67,425.77 -792.04,430.73 -722.64,4.95 -1257.18,-440.63 -1257.18,-1296.84 0,-841.33 559.33,-1281.96 1272.05,-1277 326.63,0 638.65,153.68 777.17,396.02l20.38 -336.54zm-1465.11 1217.51c0,465.43 321.66,743.58 722.65,743.58 950.39,0 950.39,-1479.98 0,-1479.98 -400.99,-1.65 -722.65,271.26 -722.65,736.4z"/>
     <path class="fil0" d="M28856.06 4153.25l0 692.89 673.07 0 0 519.67 -678.02 0 0 1054.22c0,232.7 128.61,346.45 316.7,346.45 101.57,-2.92 201.47,-28.32 292.22,-74.12l168.27 514.71c-158.4,66 -328.57,101.36 -500.07,103.83 -529.57,19.83 -876.03,-282 -876.03,-890.9l-0.08 -1054.19 -455.24 0 0 -519.67 455.24 0 0 -628.72 603.94 -64.17z"/>
     <path class="fil0" d="M30439.86 4153.25c0,470.1 -712.72,470.1 -712.72,0 0,-470.1 712.72,-470.1 712.72,0zm-658.2 678.03l0 2451.02 603.67 0 0 -2451.02 -603.67 0z"/>
     <polygon class="fil0" points="33261,4836.23 32221.67,7291.11 31568.42,7291.1 30524.13,4836.22 31182.33,4836.23 31518.86,5643.14 31895.06,6672.56 32266.28,5653.6 32602.81,4837.06 "/>
     <path class="fil0" d="M33869.91 6276.54c39.66,302.94 302.93,519.67 727.6,519.67 222.79,0 514.71,-82.62 653.51,-227.75l385.56 381.15c-257.21,267.4 -678.02,396.02 -1049.25,396.02 -841.34,0 -1341.18,-519.67 -1341.18,-1301.8 0,-743.57 504.8,-1277 1296.56,-1277 816.83,0 1326.59,505.08 1232.68,1509.72l-1905.48 0zm1326.58 -499.85c-39.66,-316.7 -287.23,-475.33 -633.41,-475.33 -326.62,0 -593.74,158.63 -682.98,475.33l1316.39 0z"/>
    </g>
    <g>
     <path class="fil0" d="M12858.61 7645.96l0 1351.37c143.48,-252.53 544.45,-391.07 801.96,-391.07 712.72,0 1242.31,435.68 1242.31,1277.01 0,801.67 -539.5,1277 -1257.18,1277 -297.15,0 -598.98,-99.14 -787.08,-391.06l-39.66 336.53 -564.02 0.01 0 -3459.8 603.67 0zm39.65 2237.31c0,440.63 326.63,717.67 707.77,717.67 385.56,0 692.9,-291.92 692.9,-717.67 0,-440.64 -306.8,-712.73 -692.9,-712.73 -381.15,0 -707.77,286.97 -707.77,712.73z"/>
     <path class="fil0" d="M17284.75 8665.75l578.32 0 0 2440.01 -567.31 0 -29.75 -356.36c-137.7,287.23 -519.67,425.77 -791.77,430.72 -722.64,4.95 -1257.17,-440.63 -1257.17,-1296.83 0,-841.34 559.04,-1281.97 1271.78,-1277.01 326.89,0 638.64,153.4 777.16,396.02l18.74 -336.54zm-1465.11 1217.52c0,465.14 321.66,743.57 722.65,743.57 950.39,0 950.39,-1479.98 0,-1479.98 -400.99,-1.1 -722.65,271.54 -722.65,736.41z"/>
     <path class="fil0" d="M20042.08 11105.76l0 -1277.01c0,-371.23 -202.97,-653.23 -588.8,-653.23 -371.24,0 -623.77,311.75 -623.77,682.98l0 1247.27 -598.98 -0.01 0 -2444.96 539.77 0 39.38 330.47c247.86,-242.62 495.72,-366.28 801.96,-366.28 574.2,0 1034.39,430.72 1034.39,1197.69l0 1281.96 -603.94 1.11z"/>
     <polygon class="fil0" points="21591.99,7645.96 21591.99,9645.61 22413.78,8665.75 23136.4,8665.75 23136.4,8700.45 22141.4,9813.88 23274.94,11061.15 23274.94,11105.76 22547.34,11105.76 21591.99,10001.97 21591.99,11105.76 20988.32,11105.76 20988.32,7645.96 "/>
    </g>
    <g>
     <path class="fil0" d="M13314.1 336.53l0 692.9 673.07 0 0 519.67 -677.75 0 0 1054.22c0,232.7 128.61,346.45 316.7,346.45 101.51,-2.77 201.44,-28.24 291.97,-74.13l167.95 514.19c-158.29,66.16 -328.41,101.5 -499.87,103.8 -529.58,19.83 -876.03,-282 -876.03,-890.91l0.02 -1053.62 -455.24 0 0 -519.67 455.24 0 0 -628.45 603.94 -64.45z"/>
     <path class="fil0" d="M14793.8 0l0 1356.05c217.84,-282 485.25,-366.28 762.3,-366.28 692.89,0 999.96,470.38 999.96,1188.05l0 1286.92 -602.85 0 0 -1281.96c0,-445.59 -232.7,-633.4 -554.37,-633.4 -356.36,0 -603.94,302.93 -603.94,668.38l0 1247.26 -604.21 0 0 -3465.03 603.12 0z"/>
     <path class="fil0" d="M17333.22 2459.84c39.39,302.93 302.94,519.67 727.32,519.67 222.8,0 514.99,-82.63 653.52,-227.48l385.56 380.87c-257.5,267.41 -678.3,396.02 -1049.26,396.02 -841.62,0 -1341.46,-519.66 -1341.46,-1301.79 0,-742.2 504.81,-1276.74 1296.84,-1276.74 816.55,0 1326.3,504.81 1232.39,1509.45l-1904.91 0.01zm1326.31 -499.85c-39.66,-316.7 -286.97,-475.07 -633.41,-475.07 -326.9,0 -594.03,158.37 -682.99,475.07l1316.4 0z"/>
    </g>
   </g>
   <g>
    <polygon class="fil1" points="1593.17,5322.55 118.79,6765.06 1112.27,4951.57 3060.49,2355.65 4274.44,1919.17 "/>
    <polygon class="fil1" points="1588.42,7776.64 -0,9337.9 1089.65,7427.7 5558.41,1457.64 6945.44,958.85 "/>
    <polygon class="fil1" points="2827.3,8643.16 592.46,11014.89 2296.88,8272.63 8099.63,543.78 9581.26,20.13 "/>
    <polygon class="fil1" points="9590.45,2436.85 4051.31,9499.4 1791.03,11905.08 3520.72,9128.37 9590.45,1042.91 "/>
    <polygon class="fil1" points="9590.45,4820.16 5259.96,10344.87 3593.73,12008.12 4758.71,9994.36 9590.45,3534 "/>
    <polygon class="fil1" points="9590.45,7188.66 7582.36,9741.89 6094.09,11194.53 7096.46,9383.19 9590.45,6052.77 "/>
   </g>
  </g>
 </g>
</svg>
